<?xml version="1.0" encoding="iso-8859-1"?>
<!-- Uploaded to: SVG Repo, www.svgrepo.com, Generator: SVG Repo Mixer Tools -->
<svg height="800px" width="800px" version="1.1" id="Layer_1" xmlns="http://www.w3.org/2000/svg" xmlns:xlink="http://www.w3.org/1999/xlink" 
	 viewBox="0 0 511.869 511.869" xml:space="preserve">
<circle style="fill:#6B7F9E;" cx="255.935" cy="255.935" r="255.935"/>
<polygon style="fill:#83CF8F;" points="181.728,316.424 437.793,316.424 356.14,389.585 99.944,389.585 "/>
<g>
	<path style="fill:#75BD80;" d="M181.728,316.424h256.196l-81.653,73.162H100.075L181.728,316.424z M184.341,322.041H422.9
		l-69.242,61.926H115.099L184.341,322.041z"/>
	<path style="fill:#75BD80;" d="M140.575,389.585H99.944l23.647-21.165c7.969-2.874,16.461-4.703,23.516-4.703
		c14.632,0,18.16,7.447,7.839,16.723c-3.789,3.397-8.753,6.402-14.371,9.015V389.585z"/>
	<path style="fill:#75BD80;" d="M379.787,368.421l-23.647,21.165h-40.631c0.261-2.613,2.221-5.748,5.879-9.015
		c10.321-9.276,30.571-16.723,45.203-16.723c7.055,0,11.627,1.829,13.195,4.703V368.421z"/>
	<path style="fill:#75BD80;" d="M397.163,316.424h40.631l-23.647,21.165c-7.969,2.874-16.461,4.703-23.516,4.703
		c-14.632,0-18.16-7.447-7.839-16.723c3.789-3.397,8.753-6.402,14.371-9.015V316.424z"/>
	<path style="fill:#75BD80;" d="M222.359,316.424c-0.261,2.613-2.221,5.748-5.879,9.015c-10.321,9.276-30.571,16.723-45.203,16.723
		c-7.055,0-11.627-1.829-13.195-4.703l23.647-21.165h40.631V316.424z"/>
	<path style="fill:#75BD80;" d="M204.199,360.974h111.702l-5.618,5.095H198.581L204.199,360.974z M204.722,350.522h134.173
		l-5.618,5.095H199.104L204.722,350.522z M227.715,340.07h111.702l-5.618,5.095H222.097L227.715,340.07z"/>
	<path style="fill:#75BD80;" d="M204.199,360.974h55.786l-5.618,5.095h-55.786L204.199,360.974z M283.501,339.94l-5.618,5.095
		h-55.786l5.618-5.095H283.501z M271.743,350.391l-5.618,5.095h-67.152l5.618-5.095H271.743z"/>
	<path style="fill:#75BD80;" d="M296.043,328.704c21.295,0,26.26,10.844,11.366,24.3c-15.024,13.457-44.419,24.3-65.584,24.3
		c-21.295,0-26.26-10.844-11.366-24.3C245.483,339.548,274.878,328.704,296.043,328.704z"/>
</g>
<g>
	<path style="fill:#FFFFFF;" d="M302.575,339.548c0,0-0.131-3.789-7.839-4.573l5.487-4.965h-9.145l-5.879,5.226
		c-0.784,0.131-1.437,0.261-2.221,0.261c-19.336,3.005-24.561,10.844-25.737,12.019c-1.176,1.176-1.437,4.442,3.397,6.663
		c4.703,2.221,11.105,4.05,9.276,6.271s-8.361,5.356-14.24,4.965s-9.537-4.05-9.537-4.05l-11.497,4.703c0,0,0.523,4.05,10.844,4.834
		l-5.487,4.965h9.145l5.618-4.965c12.934-1.176,21.034-6.794,21.034-6.794s10.19-6.271,6.402-9.929
		c-3.919-3.658-14.502-4.573-12.411-8.231c2.09-3.658,11.889-6.663,16.2-5.487s6.14,3.658,6.14,3.658l10.713-4.703L302.575,339.548z
		"/>
	<path style="fill:#FFFFFF;" d="M201.325,325.046c0,0,0-1.176-2.482-1.437l1.698-1.568h-2.874l-1.829,1.698
		c-0.261,0-0.523,0-0.784,0.131c-6.14,0.915-7.708,3.397-8.1,3.789s-0.392,1.437,1.045,2.09c1.568,0.653,3.527,1.306,2.874,1.96
		c-0.523,0.653-2.613,1.698-4.442,1.568s-3.005-1.306-3.005-1.306l-3.658,1.437c0,0,0.131,1.306,3.397,1.568l-1.698,1.568h2.874
		l1.698-1.568c4.05-0.392,6.663-2.09,6.663-2.09s3.266-1.96,1.96-3.135c-1.176-1.176-4.573-1.437-3.919-2.613
		s3.789-2.09,5.095-1.698c1.306,0.392,1.96,1.176,1.96,1.176l3.397-1.437L201.325,325.046z"/>
	<path style="fill:#FFFFFF;" d="M148.544,372.471c0,0,0-1.176-2.482-1.437l1.698-1.568h-2.874l-1.829,1.698
		c-0.261,0-0.523,0-0.784,0.131c-6.14,0.915-7.708,3.397-8.1,3.789s-0.392,1.437,1.045,2.09c1.568,0.653,3.527,1.306,2.874,1.96
		c-0.523,0.653-2.613,1.698-4.442,1.568s-3.005-1.306-3.005-1.306l-3.658,1.437c0,0,0.131,1.306,3.397,1.568l-1.698,1.568h2.874
		l1.698-1.568c4.05-0.392,6.663-2.09,6.663-2.09s3.266-1.96,1.96-3.135c-1.176-1.176-4.573-1.437-3.919-2.613
		s3.789-2.09,5.095-1.698s1.96,1.176,1.96,1.176l3.397-1.437L148.544,372.471z"/>
	<path style="fill:#FFFFFF;" d="M411.272,325.046c0,0,0-1.176-2.482-1.437l1.698-1.568h-2.874l-1.829,1.698
		c-0.261,0-0.523,0-0.784,0.131c-6.14,0.915-7.708,3.397-8.1,3.789s-0.392,1.437,1.045,2.09c1.568,0.653,3.527,1.306,2.874,1.96
		c-0.523,0.653-2.613,1.698-4.442,1.568s-3.005-1.306-3.005-1.306l-3.658,1.437c0,0,0.131,1.306,3.397,1.568l-1.698,1.568h2.874
		l1.698-1.568c4.05-0.392,6.663-2.09,6.663-2.09s3.266-1.96,1.96-3.135c-1.176-1.176-4.573-1.437-3.919-2.613
		s3.789-2.09,5.095-1.698s1.96,1.176,1.96,1.176l3.397-1.437L411.272,325.046z"/>
	<path style="fill:#FFFFFF;" d="M358.361,372.471c0,0,0-1.176-2.482-1.437l1.698-1.568h-2.874l-1.829,1.698
		c-0.261,0-0.523,0-0.784,0.131c-6.14,0.915-7.708,3.397-8.1,3.789s-0.392,1.437,1.045,2.09c1.568,0.653,3.527,1.306,2.874,1.96
		c-0.523,0.653-2.613,1.698-4.442,1.568s-3.005-1.306-3.005-1.306l-3.658,1.437c0,0,0.131,1.306,3.397,1.568l-1.698,1.568h2.874
		l1.698-1.568c4.05-0.392,6.663-2.09,6.663-2.09s3.266-1.96,1.96-3.135c-1.176-1.176-4.573-1.437-3.919-2.613
		s3.789-2.09,5.095-1.698s1.96,1.176,1.96,1.176l3.397-1.437L358.361,372.471z"/>
	<polygon style="fill:#FFFFFF;" points="99.944,389.585 356.14,389.585 356.14,422.638 99.944,422.638 	"/>
</g>
<polygon style="fill:#ECF0F1;" points="437.793,316.424 356.14,389.585 356.14,422.638 437.793,349.608 "/>
<path style="fill:#83CF8F;" d="M99.944,391.675H356.14v2.613H99.944V391.675z M99.944,417.151H356.14v2.613H99.944V417.151z
	 M99.944,410.75H356.14v2.613H99.944V410.75z M99.944,404.348H356.14v2.613H99.944V404.348z M99.944,397.946H356.14v2.613H99.944
	V397.946z"/>
<path style="fill:#75BD80;" d="M437.793,319.951l-81.653,71.724v2.613l81.653-71.724V319.951z M437.793,345.427l-81.653,71.724
	v2.613l81.653-71.724V345.427z M437.793,339.025L356.14,410.75v2.613l81.653-71.724V339.025z M437.793,332.624l-81.653,71.724v2.613
	l81.653-71.724V332.624z M437.793,326.222l-81.653,71.724v2.613l81.653-71.724V326.222z"/>
<polygon style="fill:#83CF8F;" points="131.952,270.044 388.017,270.044 306.364,343.075 50.168,343.075 "/>
<g>
	<path style="fill:#75BD80;" d="M131.952,270.044h256.196l-81.654,73.162H50.299L131.952,270.044z M134.565,275.662h238.559
		l-69.242,61.926H65.323L134.565,275.662z"/>
	<path style="fill:#75BD80;" d="M90.799,343.075H50.168l23.647-21.165c7.969-2.874,16.461-4.703,23.516-4.703
		c14.632,0,18.16,7.447,7.839,16.723c-3.789,3.397-8.753,6.402-14.371,9.015V343.075z"/>
	<path style="fill:#75BD80;" d="M330.011,322.041l-23.647,21.165h-40.631c0.261-2.613,2.221-5.748,5.879-9.015
		c10.321-9.276,30.571-16.723,45.203-16.723c7.055,0,11.627,1.829,13.195,4.703V322.041z"/>
	<path style="fill:#75BD80;" d="M347.387,270.044h40.631l-23.647,21.165c-7.969,2.874-16.461,4.703-23.516,4.703
		c-14.632,0-18.16-7.447-7.839-16.723c3.789-3.397,8.753-6.402,14.371-9.015V270.044z"/>
	<path style="fill:#75BD80;" d="M172.583,270.044c-0.261,2.613-2.221,5.748-5.879,9.015c-10.321,9.276-30.571,16.723-45.203,16.723
		c-7.055,0-11.627-1.829-13.195-4.703l23.647-21.165h40.631V270.044z"/>
	<path style="fill:#75BD80;" d="M154.423,314.464h111.702l-5.618,5.095H148.805L154.423,314.464z M154.946,304.012h134.173
		l-5.618,5.095H149.328L154.946,304.012z M177.939,293.561h111.702l-5.618,5.095H172.322L177.939,293.561z"/>
	<path style="fill:#75BD80;" d="M154.423,314.464h55.786l-5.618,5.095h-55.916l5.618-5.095H154.423z M233.725,293.43l-5.618,5.095
		h-55.916l5.618-5.095H233.725z M221.967,303.882l-5.618,5.095h-67.152l5.618-5.095H221.967z"/>
	<path style="fill:#75BD80;" d="M246.267,282.325c21.295,0,26.26,10.844,11.366,24.3c-15.024,13.457-44.419,24.3-65.584,24.3
		c-21.295,0-26.26-10.844-11.366-24.3C195.707,293.169,225.102,282.325,246.267,282.325z"/>
</g>
<g>
	<path style="fill:#FFFFFF;" d="M252.799,293.169c0,0-0.131-3.789-7.839-4.573l5.487-4.965h-9.145l-5.879,5.226
		c-0.784,0.131-1.437,0.261-2.221,0.261c-19.336,3.005-24.561,10.844-25.737,12.019c-1.176,1.176-1.437,4.442,3.397,6.663
		c4.703,2.221,11.105,4.05,9.276,6.271s-8.361,5.356-14.24,4.965c-5.879-0.392-9.537-4.05-9.537-4.05l-11.497,4.703
		c0,0,0.523,4.05,10.844,4.834l-5.487,4.965h9.145l5.618-4.965c12.934-1.176,21.034-6.794,21.034-6.794s10.19-6.271,6.402-9.929
		c-3.919-3.658-14.502-4.573-12.411-8.231c2.09-3.658,11.889-6.663,16.2-5.487c4.311,1.176,6.14,3.658,6.14,3.658l10.713-4.703
		L252.799,293.169z"/>
	<path style="fill:#FFFFFF;" d="M151.549,278.667c0,0,0-1.176-2.482-1.437l1.698-1.568h-2.874l-1.829,1.698
		c-0.261,0-0.523,0-0.784,0.131c-6.14,0.915-7.708,3.397-8.1,3.789s-0.392,1.437,1.045,2.09c1.568,0.653,3.527,1.306,2.874,1.96
		c-0.523,0.653-2.613,1.698-4.442,1.568s-3.005-1.306-3.005-1.306l-3.658,1.437c0,0,0.131,1.306,3.397,1.568l-1.698,1.568h2.874
		l1.698-1.568c4.05-0.392,6.663-2.09,6.663-2.09s3.266-1.96,1.96-3.135c-1.176-1.176-4.573-1.437-3.919-2.613
		s3.789-2.09,5.095-1.698c1.306,0.392,1.96,1.176,1.96,1.176l3.397-1.437L151.549,278.667z"/>
	<path style="fill:#FFFFFF;" d="M98.768,325.961c0,0,0-1.176-2.482-1.437l1.698-1.568H95.11l-1.829,1.698
		c-0.261,0-0.523,0-0.784,0.131c-6.14,0.915-7.708,3.397-8.1,3.789s-0.392,1.437,1.045,2.09c1.568,0.653,3.527,1.306,2.874,1.96
		c-0.523,0.653-2.613,1.698-4.442,1.568s-3.005-1.306-3.005-1.306l-3.658,1.437c0,0,0.131,1.306,3.397,1.568l-1.698,1.568h2.874
		l1.698-1.568c4.05-0.392,6.663-2.09,6.663-2.09s3.266-1.96,1.96-3.135c-1.176-1.176-4.573-1.437-3.919-2.613
		s3.789-2.09,5.095-1.698c1.306,0.392,1.96,1.176,1.96,1.176l3.397-1.437L98.768,325.961z"/>
	<path style="fill:#FFFFFF;" d="M361.496,278.536c0,0,0-1.176-2.482-1.437l1.698-1.568h-2.874l-1.829,1.698
		c-0.261,0-0.523,0-0.784,0.131c-6.14,0.915-7.708,3.397-8.1,3.789s-0.392,1.437,1.045,2.09c1.568,0.653,3.527,1.306,2.874,1.96
		c-0.523,0.653-2.613,1.698-4.442,1.568c-1.829-0.131-3.005-1.306-3.005-1.306l-3.658,1.437c0,0,0.131,1.306,3.397,1.568
		l-1.698,1.568h2.874l1.698-1.568c4.05-0.392,6.663-2.09,6.663-2.09s3.266-1.96,1.96-3.135c-1.176-1.176-4.573-1.437-3.919-2.613
		s3.789-2.09,5.095-1.698c1.306,0.392,1.96,1.176,1.96,1.176l3.397-1.437L361.496,278.536z"/>
	<path style="fill:#FFFFFF;" d="M308.585,325.961c0,0,0-1.176-2.482-1.437l1.698-1.568h-2.874l-1.829,1.698
		c-0.261,0-0.523,0-0.784,0.131c-6.14,0.915-7.708,3.397-8.1,3.789s-0.392,1.437,1.045,2.09c1.568,0.653,3.527,1.306,2.874,1.96
		c-0.523,0.653-2.613,1.698-4.442,1.568s-3.005-1.306-3.005-1.306l-3.658,1.437c0,0,0.131,1.306,3.397,1.568l-1.698,1.568h2.874
		l1.698-1.568c4.05-0.392,6.663-2.09,6.663-2.09s3.266-1.96,1.96-3.135c-1.176-1.176-4.573-1.437-3.919-2.613
		s3.789-2.09,5.095-1.698s1.96,1.176,1.96,1.176l3.397-1.437L308.585,325.961z"/>
	<polygon style="fill:#FFFFFF;" points="50.168,343.075 306.364,343.075 306.364,376.259 50.168,376.259 	"/>
</g>
<polygon style="fill:#ECF0F1;" points="388.017,270.044 306.364,343.075 306.364,376.259 388.017,303.098 "/>
<path style="fill:#83CF8F;" d="M50.168,345.166h256.196v2.613H50.168V345.166z M50.168,370.641h256.196v2.613H50.168V370.641z
	 M50.168,364.24h256.196v2.613H50.168V364.24z M50.168,357.838h256.196v2.613H50.168V357.838z M50.168,351.437h256.196v2.613H50.168
	V351.437z"/>
<path style="fill:#75BD80;" d="M388.017,273.441l-81.654,71.724v2.613l81.654-71.724V273.441z M388.017,298.917l-81.654,71.724
	v2.613l81.654-71.724V298.917z M388.017,292.515l-81.654,71.724v2.613l81.654-71.724V292.515z M388.017,286.114l-81.654,71.724
	v2.613l81.654-71.724V286.114z M388.017,279.712l-81.654,71.724v2.613l81.654-71.724V279.712z"/>
<polygon style="fill:#83CF8F;" points="182.381,221.052 438.577,221.052 356.793,294.214 100.728,294.214 "/>
<g>
	<path style="fill:#75BD80;" d="M182.381,221.052h256.196l-81.653,73.162H100.728L182.381,221.052z M184.994,226.67h238.559
		l-69.242,61.926H115.752L184.994,226.67z"/>
	<path style="fill:#75BD80;" d="M141.359,294.214h-40.631l23.647-21.165c7.969-2.874,16.461-4.703,23.516-4.703
		c14.632,0,18.16,7.447,7.839,16.723c-3.789,3.397-8.753,6.402-14.371,9.015V294.214z"/>
	<path style="fill:#75BD80;" d="M380.44,273.049l-23.647,21.165h-40.631c0.261-2.613,2.221-5.748,5.879-9.015
		c10.321-9.276,30.571-16.723,45.203-16.723c7.055,0,11.627,1.829,13.195,4.703V273.049z"/>
	<path style="fill:#75BD80;" d="M397.946,221.052h40.631l-23.647,21.165c-7.969,2.874-16.461,4.703-23.516,4.703
		c-14.632,0-18.16-7.447-7.839-16.723c3.789-3.397,8.753-6.402,14.371-9.015V221.052z"/>
	<path style="fill:#75BD80;" d="M223.012,221.052c-0.261,2.613-2.221,5.748-5.879,9.015c-10.321,9.276-30.571,16.723-45.203,16.723
		c-7.055,0-11.627-1.829-13.195-4.703l23.647-21.165h40.631V221.052z"/>
	<path style="fill:#75BD80;" d="M204.852,265.602h111.702l-5.618,5.095H199.234L204.852,265.602z M205.375,255.151h134.173
		l-5.618,5.095H199.757L205.375,255.151z M228.368,244.699H340.07l-5.618,5.095H222.751L228.368,244.699z"/>
	<path style="fill:#75BD80;" d="M204.852,265.602h55.786l-5.618,5.095h-55.786L204.852,265.602z M284.154,244.569l-5.618,5.095
		h-55.786l5.618-5.095H284.154z M272.396,255.02l-5.618,5.095h-67.152l5.618-5.095H272.396z"/>
	<path style="fill:#75BD80;" d="M296.696,233.333c21.295,0,26.26,10.844,11.366,24.3c-15.024,13.457-44.419,24.3-65.584,24.3
		c-21.295,0-26.26-10.844-11.366-24.3C246.136,244.177,275.532,233.333,296.696,233.333z"/>
</g>
<g>
	<path style="fill:#FFFFFF;" d="M303.228,244.177c0,0-0.131-3.789-7.839-4.573l5.487-4.965h-9.145l-5.879,5.226
		c-0.784,0.131-1.437,0.261-2.221,0.261c-19.336,3.005-24.561,10.844-25.737,12.019s-1.437,4.442,3.397,6.663
		c4.703,2.221,11.105,4.05,9.276,6.271s-8.361,5.356-14.24,4.965c-5.879-0.392-9.537-4.05-9.537-4.05l-11.497,4.703
		c0,0,0.523,4.05,10.844,4.834l-5.487,4.965h9.145l5.618-4.965c12.934-1.176,21.034-6.794,21.034-6.794s10.19-6.271,6.402-9.929
		c-3.919-3.658-14.502-4.573-12.411-8.231c2.09-3.658,11.889-6.663,16.2-5.487s6.14,3.658,6.14,3.658l10.713-4.703L303.228,244.177z
		"/>
	<path style="fill:#FFFFFF;" d="M202.109,229.806c0,0,0-1.176-2.482-1.437l1.698-1.568h-2.874l-1.829,1.698
		c-0.261,0-0.523,0-0.784,0.131c-6.14,0.915-7.708,3.397-8.1,3.789s-0.392,1.437,1.045,2.09c1.568,0.653,3.527,1.306,2.874,1.96
		c-0.523,0.653-2.613,1.698-4.442,1.568s-3.005-1.306-3.005-1.306l-3.658,1.437c0,0,0.131,1.306,3.397,1.568l-1.698,1.568h2.874
		l1.698-1.568c4.05-0.392,6.663-2.09,6.663-2.09s3.266-1.96,1.96-3.135c-1.176-1.176-4.573-1.437-3.919-2.613
		s3.789-2.09,5.095-1.698s1.96,1.176,1.96,1.176l3.397-1.437L202.109,229.806z"/>
	<path style="fill:#FFFFFF;" d="M149.197,277.099c0,0,0-1.176-2.482-1.437l1.698-1.568h-2.874l-1.829,1.698
		c-0.261,0-0.523,0-0.784,0.131c-6.14,0.915-7.708,3.397-8.1,3.789s-0.392,1.437,1.045,2.09c1.568,0.653,3.527,1.306,2.874,1.96
		c-0.523,0.653-2.613,1.698-4.442,1.568s-3.005-1.306-3.005-1.306l-3.658,1.437c0,0,0.131,1.306,3.397,1.568l-1.698,1.568h2.874
		l1.698-1.568c4.05-0.392,6.663-2.09,6.663-2.09s3.266-1.96,1.96-3.135c-1.176-1.176-4.573-1.437-3.919-2.613
		c0.653-1.176,3.789-2.09,5.095-1.698s1.96,1.176,1.96,1.176l3.397-1.437L149.197,277.099z"/>
	<path style="fill:#FFFFFF;" d="M412.056,229.675c0,0,0-1.176-2.482-1.437l1.698-1.568h-2.874l-1.829,1.698
		c-0.261,0-0.523,0-0.784,0.131c-6.14,0.915-7.708,3.397-8.1,3.789s-0.392,1.437,1.045,2.09c1.568,0.653,3.527,1.306,2.874,1.96
		c-0.523,0.653-2.613,1.698-4.442,1.568s-3.005-1.306-3.005-1.306l-3.658,1.437c0,0,0.131,1.306,3.397,1.568l-1.698,1.568h2.874
		l1.698-1.568c4.05-0.392,6.663-2.09,6.663-2.09s3.266-1.96,1.96-3.135c-1.176-1.176-4.573-1.437-3.919-2.613
		s3.789-2.09,5.095-1.698s1.96,1.176,1.96,1.176l3.397-1.437L412.056,229.675z"/>
	<path style="fill:#FFFFFF;" d="M359.014,277.099c0,0,0-1.176-2.482-1.437l1.698-1.568h-2.874l-1.829,1.698
		c-0.261,0-0.523,0-0.784,0.131c-6.14,0.915-7.708,3.397-8.1,3.789s-0.392,1.437,1.045,2.09c1.568,0.653,3.527,1.306,2.874,1.96
		c-0.523,0.653-2.613,1.698-4.442,1.568c-1.829-0.131-3.005-1.306-3.005-1.306l-3.658,1.437c0,0,0.131,1.306,3.397,1.568
		l-1.698,1.568h2.874l1.698-1.568c4.05-0.392,6.663-2.09,6.663-2.09s3.266-1.96,1.96-3.135c-1.176-1.176-4.573-1.437-3.919-2.613
		c0.653-1.176,3.789-2.09,5.095-1.698s1.96,1.176,1.96,1.176l3.397-1.437L359.014,277.099z"/>
	<polygon style="fill:#FFFFFF;" points="100.728,294.214 356.793,294.214 356.793,327.398 100.728,327.398 	"/>
</g>
<polygon style="fill:#ECF0F1;" points="438.577,221.052 356.793,294.214 356.793,327.398 438.577,254.236 "/>
<path style="fill:#83CF8F;" d="M100.728,296.304h256.196v2.613H100.728V296.304z M100.728,321.78h256.196v2.613H100.728V321.78z
	 M100.728,315.378h256.196v2.613H100.728V315.378z M100.728,308.977h256.196v2.613H100.728V308.977z M100.728,302.575h256.196v2.613
	H100.728V302.575z"/>
<path style="fill:#75BD80;" d="M438.577,224.58l-81.653,71.724v2.613l81.653-71.724V224.58z M438.577,250.056l-81.653,71.724v2.613
	l81.653-71.724V250.056z M438.577,243.654l-81.653,71.724v2.613l81.653-71.724V243.654z M438.577,237.252l-81.653,71.724v2.613
	l81.653-71.724V237.252z M438.577,230.851l-81.653,71.724v2.613l81.653-71.724V230.851z"/>
<polygon style="fill:#83CF8F;" points="138.354,175.98 394.55,175.98 312.766,249.141 56.7,249.141 "/>
<g>
	<path style="fill:#75BD80;" d="M138.354,175.98H394.55l-81.653,73.162H56.7L138.354,175.98z M140.967,181.597h238.559
		l-69.242,61.926H71.724L140.967,181.597z"/>
	<path style="fill:#75BD80;" d="M97.331,249.141H56.7l23.647-21.165c7.969-2.874,16.461-4.703,23.516-4.703
		c14.632,0,18.16,7.447,7.839,16.723c-3.789,3.397-8.753,6.402-14.371,9.015V249.141z"/>
	<path style="fill:#75BD80;" d="M336.412,227.977l-23.647,21.165h-40.631c0.261-2.613,2.221-5.748,5.879-9.015
		c10.321-9.276,30.571-16.723,45.203-16.723c7.055,0,11.627,1.829,13.195,4.703V227.977z"/>
	<path style="fill:#75BD80;" d="M353.919,175.98h40.631l-23.647,21.165c-7.969,2.874-16.461,4.703-23.516,4.703
		c-14.632,0-18.16-7.447-7.839-16.723c3.789-3.397,8.753-6.402,14.371-9.015V175.98z"/>
	<path style="fill:#75BD80;" d="M178.984,175.98c-0.261,2.613-2.221,5.748-5.879,9.015c-10.321,9.276-30.571,16.723-45.203,16.723
		c-7.055,0-11.627-1.829-13.195-4.703l23.647-21.165h40.631V175.98z"/>
	<path style="fill:#75BD80;" d="M160.825,220.53h111.702l-5.618,5.095H155.207L160.825,220.53z M161.347,210.078H295.52
		l-5.618,5.095H155.73L161.347,210.078z M184.341,199.626h111.702l-5.618,5.095H178.723L184.341,199.626z"/>
	<path style="fill:#75BD80;" d="M160.825,220.53h55.786l-5.618,5.095h-55.916l5.618-5.095H160.825z M240.127,199.496l-5.618,5.095
		h-55.916l5.618-5.095H240.127z M228.368,209.947l-5.618,5.095h-67.152l5.618-5.095H228.368z"/>
	<path style="fill:#75BD80;" d="M252.799,188.26c21.295,0,26.26,10.844,11.366,24.3c-15.024,13.456-44.419,24.3-65.584,24.3
		c-21.295,0-26.26-10.844-11.366-24.3C202.239,199.104,231.635,188.26,252.799,188.26z"/>
</g>
<g>
	<path style="fill:#FFFFFF;" d="M259.201,199.104c0,0-0.131-3.789-7.839-4.573l5.487-4.965h-9.145l-5.879,5.226
		c-0.784,0.131-1.437,0.261-2.221,0.261c-19.336,3.005-24.561,10.844-25.737,12.019c-1.176,1.176-1.437,4.442,3.397,6.663
		c4.703,2.221,11.105,4.05,9.276,6.271s-8.361,5.356-14.24,4.965c-5.879-0.392-9.537-4.05-9.537-4.05l-11.497,4.703
		c0,0,0.523,4.05,10.844,4.834l-5.487,4.965h9.145l5.618-4.965c12.934-1.176,21.034-6.794,21.034-6.794s10.19-6.271,6.402-9.929
		c-3.919-3.658-14.502-4.573-12.411-8.231c2.09-3.658,11.889-6.663,16.2-5.487c4.311,1.176,6.14,3.658,6.14,3.658l10.713-4.703
		L259.201,199.104z"/>
	<path style="fill:#FFFFFF;" d="M158.081,184.733c0,0,0-1.176-2.482-1.437l1.698-1.568h-2.874l-1.829,1.698
		c-0.261,0-0.523,0-0.784,0.131c-6.14,0.915-7.708,3.397-8.1,3.789s-0.392,1.437,1.045,2.09c1.568,0.653,3.527,1.306,2.874,1.96
		c-0.523,0.653-2.613,1.698-4.442,1.568s-3.005-1.306-3.005-1.306l-3.658,1.437c0,0,0.131,1.306,3.397,1.568l-1.698,1.568h2.874
		l1.698-1.568c4.05-0.392,6.663-2.09,6.663-2.09s3.266-1.96,1.96-3.135c-1.176-1.176-4.573-1.437-3.919-2.613
		s3.789-2.09,5.095-1.698s1.96,1.176,1.96,1.176l3.397-1.437L158.081,184.733z"/>
	<path style="fill:#FFFFFF;" d="M105.17,232.027c0,0,0-1.176-2.482-1.437l1.698-1.568h-2.874l-1.829,1.698
		c-0.261,0-0.523,0-0.784,0.131c-6.14,0.915-7.708,3.397-8.1,3.789s-0.392,1.437,1.045,2.09c1.568,0.653,3.527,1.306,2.874,1.96
		c-0.523,0.653-2.613,1.698-4.442,1.568c-1.829-0.131-3.005-1.306-3.005-1.306l-3.658,1.437c0,0,0.131,1.306,3.397,1.568
		l-1.698,1.568h2.874l1.698-1.568c4.05-0.392,6.663-2.09,6.663-2.09s3.266-1.96,1.96-3.135c-1.176-1.176-4.573-1.437-3.919-2.613
		s3.789-2.09,5.095-1.698s1.96,1.176,1.96,1.176l3.397-1.437L105.17,232.027z"/>
	<path style="fill:#FFFFFF;" d="M368.029,184.602c0,0,0-1.176-2.482-1.437l1.698-1.568h-2.874l-1.829,1.698
		c-0.261,0-0.523,0-0.784,0.131c-6.14,0.915-7.708,3.397-8.1,3.789s-0.392,1.437,1.045,2.09c1.568,0.653,3.527,1.306,2.874,1.96
		c-0.523,0.653-2.613,1.698-4.442,1.568s-3.005-1.306-3.005-1.306l-3.658,1.437c0,0,0.131,1.306,3.397,1.568l-1.698,1.568h2.874
		l1.698-1.568c4.05-0.392,6.663-2.09,6.663-2.09s3.266-1.96,1.96-3.135c-1.176-1.176-4.573-1.437-3.919-2.613
		s3.789-2.09,5.095-1.698s1.96,1.176,1.96,1.176l3.397-1.437L368.029,184.602z"/>
	<path style="fill:#FFFFFF;" d="M314.986,232.027c0,0,0-1.176-2.482-1.437l1.698-1.568h-2.874l-1.829,1.698
		c-0.261,0-0.523,0-0.784,0.131c-6.14,0.915-7.708,3.397-8.1,3.789c-0.392,0.392-0.392,1.437,1.045,2.09
		c1.568,0.653,3.527,1.306,2.874,1.96c-0.523,0.653-2.613,1.698-4.442,1.568c-1.829-0.131-3.005-1.306-3.005-1.306l-3.658,1.437
		c0,0,0.131,1.306,3.397,1.568l-1.698,1.568h2.874l1.698-1.568c4.05-0.392,6.663-2.09,6.663-2.09s3.266-1.96,1.96-3.135
		c-1.176-1.176-4.573-1.437-3.919-2.613s3.789-2.09,5.095-1.698s1.96,1.176,1.96,1.176l3.397-1.437L314.986,232.027z"/>
	<polygon style="fill:#FFFFFF;" points="56.7,249.141 312.766,249.141 312.766,282.325 56.7,282.325 	"/>
</g>
<polygon style="fill:#ECF0F1;" points="394.55,175.98 312.766,249.141 312.766,282.325 394.55,209.164 "/>
<path style="fill:#83CF8F;" d="M56.7,251.231h256.196v2.613H56.7V251.231z M56.7,276.707h256.196v2.613H56.7V276.707z M56.7,270.306
	h256.196v2.613H56.7V270.306z M56.7,263.904h256.196v2.613H56.7V263.904z M56.7,257.502h256.196v2.613H56.7V257.502z"/>
<path style="fill:#75BD80;" d="M394.55,179.507l-81.653,71.724v2.613l81.653-71.724V179.507z M394.55,204.983l-81.653,71.724v2.613
	l81.653-71.724V204.983z M394.55,198.581l-81.653,71.724v2.613l81.653-71.724V198.581z M394.55,192.18l-81.653,71.724v2.613
	l81.653-71.724V192.18z M394.55,185.778l-81.653,71.724v2.613l81.653-71.724V185.778z"/>
<polygon style="fill:#83CF8F;" points="180.16,124.244 436.356,124.244 354.572,197.405 98.507,197.405 "/>
<g>
	<path style="fill:#75BD80;" d="M180.16,124.244h256.196l-81.653,73.162H98.507L180.16,124.244z M182.773,129.862h238.559
		l-69.242,61.926H113.531L182.773,129.862z"/>
	<path style="fill:#75BD80;" d="M139.138,197.405H98.507l23.647-21.165c7.969-2.874,16.461-4.703,23.516-4.703
		c14.632,0,18.16,7.447,7.839,16.723c-3.789,3.397-8.753,6.402-14.371,9.015V197.405z"/>
	<path style="fill:#75BD80;" d="M378.219,176.241l-23.647,21.165h-40.631c0.261-2.613,2.221-5.748,5.879-9.015
		c10.321-9.276,30.571-16.723,45.203-16.723c7.055,0,11.627,1.829,13.195,4.703V176.241z"/>
	<path style="fill:#75BD80;" d="M395.725,124.244h40.631l-23.647,21.165c-7.969,2.874-16.461,4.703-23.516,4.703
		c-14.632,0-18.16-7.447-7.839-16.723c3.789-3.397,8.753-6.402,14.371-9.015V124.244z"/>
	<path style="fill:#75BD80;" d="M220.791,124.244c-0.261,2.613-2.221,5.748-5.879,9.015c-10.321,9.276-30.571,16.723-45.203,16.723
		c-7.055,0-11.627-1.829-13.195-4.703l23.647-21.165h40.631V124.244z"/>
	<path style="fill:#75BD80;" d="M202.631,168.794h111.702l-5.618,5.095H197.014L202.631,168.794z M203.154,158.342h134.173
		l-5.618,5.095H197.536L203.154,158.342z M226.147,147.891h111.702l-5.618,5.095H220.53L226.147,147.891z"/>
	<path style="fill:#75BD80;" d="M202.631,168.794h55.916l-5.618,5.095h-55.786l5.618-5.095H202.631z M281.933,147.76l-5.618,5.095
		H220.53l5.618-5.095H281.933z M270.175,158.212l-5.618,5.095h-67.152l5.618-5.095H270.175z"/>
	<path style="fill:#75BD80;" d="M294.606,136.525c21.295,0,26.26,10.844,11.366,24.3c-15.024,13.456-44.419,24.3-65.584,24.3
		c-21.295,0-26.26-10.844-11.366-24.3C244.046,147.368,273.441,136.525,294.606,136.525z"/>
</g>
<g>
	<path style="fill:#FFFFFF;" d="M301.007,147.368c0,0-0.131-3.789-7.839-4.573l5.487-4.965h-9.145l-5.879,5.226
		c-0.784,0.131-1.437,0.131-2.221,0.261c-19.336,3.005-24.561,10.844-25.737,12.019c-1.176,1.176-1.437,4.442,3.397,6.663
		c4.703,2.221,11.105,4.05,9.276,6.271s-8.361,5.356-14.24,4.965s-9.537-4.05-9.537-4.05l-11.497,4.703c0,0,0.523,4.05,10.844,4.834
		l-5.487,4.965h9.145l5.618-4.965c12.934-1.176,21.034-6.794,21.034-6.794s10.19-6.271,6.402-9.929
		c-3.919-3.658-14.502-4.573-12.411-8.231c2.09-3.658,11.889-6.663,16.2-5.487s6.14,3.658,6.14,3.658l10.713-4.703L301.007,147.368z
		"/>
	<path style="fill:#FFFFFF;" d="M199.888,132.867c0,0,0-1.176-2.482-1.437l1.698-1.568h-2.874l-1.829,1.698
		c-0.261,0-0.523,0-0.784,0.131c-6.14,0.915-7.708,3.397-8.1,3.789s-0.392,1.437,1.045,2.09c1.568,0.653,3.527,1.306,2.874,1.96
		c-0.523,0.653-2.613,1.698-4.442,1.568c-1.829-0.131-3.005-1.306-3.005-1.306l-3.658,1.437c0,0,0.131,1.306,3.397,1.568
		l-1.698,1.568h2.874l1.698-1.568c4.05-0.392,6.663-2.09,6.663-2.09s3.266-1.96,1.96-3.135c-1.176-1.176-4.573-1.437-3.919-2.613
		s3.789-2.09,5.095-1.698c1.306,0.392,1.96,1.176,1.96,1.176l3.397-1.437L199.888,132.867z"/>
	<path style="fill:#FFFFFF;" d="M146.976,180.16c0,0,0-1.176-2.482-1.437l1.698-1.568h-2.874l-1.829,1.698
		c-0.261,0-0.523,0-0.784,0.131c-6.14,0.915-7.708,3.397-8.1,3.789s-0.392,1.437,1.045,2.09c1.568,0.653,3.527,1.306,2.874,1.96
		c-0.523,0.653-2.613,1.698-4.442,1.568s-3.005-1.306-3.005-1.306l-3.658,1.437c0,0,0.131,1.306,3.397,1.568l-1.698,1.568h2.874
		l1.698-1.568c4.05-0.392,6.663-2.09,6.663-2.09s3.266-1.96,1.96-3.135c-1.176-1.176-4.573-1.437-3.919-2.613
		s3.789-2.09,5.095-1.698s1.96,1.176,1.96,1.176l3.397-1.437L146.976,180.16z"/>
	<path style="fill:#FFFFFF;" d="M409.835,132.867c0,0,0-1.176-2.482-1.437l1.698-1.568h-2.874l-1.829,1.698
		c-0.261,0-0.523,0-0.784,0.131c-6.14,0.915-7.708,3.397-8.1,3.789s-0.392,1.437,1.045,2.09c1.568,0.653,3.527,1.306,2.874,1.96
		c-0.523,0.653-2.613,1.698-4.442,1.568s-3.005-1.306-3.005-1.306l-3.658,1.437c0,0,0.131,1.306,3.397,1.568l-1.698,1.568h2.874
		l1.698-1.568c4.05-0.392,6.663-2.09,6.663-2.09s3.266-1.96,1.96-3.135c-1.176-1.176-4.573-1.437-3.919-2.613
		s3.789-2.09,5.095-1.698s1.96,1.176,1.96,1.176l3.397-1.437L409.835,132.867z"/>
	<path style="fill:#FFFFFF;" d="M356.793,180.16c0,0,0-1.176-2.482-1.437l1.698-1.568h-2.874l-1.829,1.698
		c-0.261,0-0.523,0-0.784,0.131c-6.14,0.915-7.708,3.397-8.1,3.789s-0.392,1.437,1.045,2.09c1.568,0.653,3.527,1.306,2.874,1.96
		c-0.523,0.653-2.613,1.698-4.442,1.568s-3.005-1.306-3.005-1.306l-3.658,1.437c0,0,0.131,1.306,3.397,1.568l-1.698,1.568h2.874
		l1.698-1.568c4.05-0.392,6.663-2.09,6.663-2.09s3.266-1.96,1.96-3.135c-1.176-1.176-4.573-1.437-3.919-2.613
		c0.653-1.176,3.789-2.09,5.095-1.698s1.96,1.176,1.96,1.176l3.397-1.437L356.793,180.16z"/>
	<polygon style="fill:#FFFFFF;" points="98.507,197.405 354.572,197.405 354.572,230.459 98.507,230.459 	"/>
</g>
<polygon style="fill:#ECF0F1;" points="436.356,124.244 354.572,197.405 354.572,230.459 436.356,157.428 "/>
<path style="fill:#83CF8F;" d="M98.507,199.365h256.196v2.613H98.507V199.365z M98.507,224.841h256.196v2.613H98.507V224.841z
	 M98.507,218.439h256.196v2.613H98.507V218.439z M98.507,212.038h256.196v2.613H98.507V212.038z M98.507,205.636h256.196v2.613
	H98.507V205.636z"/>
<path style="fill:#75BD80;" d="M436.356,127.771l-81.653,71.724v2.613l81.653-71.724V127.771z M436.356,153.247l-81.653,71.724
	v2.613l81.653-71.724V153.247z M436.356,146.846l-81.653,71.724v2.613l81.653-71.724V146.846z M436.356,140.444l-81.653,71.724
	v2.613l81.653-71.724V140.444z M436.356,134.042l-81.653,71.724v2.613l81.653-71.724V134.042z"/>
</svg>